<svg width="58" height="58" viewBox="0 0 58 58" fill="none" xmlns="http://www.w3.org/2000/svg">
<g clip-path="url(#clip0)">
<path d="M29.0001 54.3267L24.3369 57.4442C23.5584 57.9598 22.6153 58.1323 21.7148 57.9238C20.8143 57.7154 20.0301 57.143 19.5345 56.3325L19.3953 56.0425L16.8433 50.9434L11.3217 51.185C10.4062 51.2245 9.51273 50.8863 8.83515 50.2439C8.15757 49.6014 7.75057 48.7065 7.70249 47.7534V47.415L7.93449 41.6634L3.03929 39.005C2.22169 38.562 1.60619 37.7992 1.32783 36.884C1.04947 35.9688 1.13098 34.976 1.55449 34.1234L1.69369 33.8575L4.68649 29L1.69369 24.1425C1.19873 23.3316 1.03311 22.3492 1.23323 21.4112C1.43334 20.4731 1.98282 19.6562 2.76089 19.14L3.03929 18.995L7.93449 16.3367L7.70249 10.585C7.66458 9.6314 7.98924 8.70069 8.60601 7.99488C9.22278 7.28906 10.0819 6.86511 10.9969 6.81502H11.3217L16.8433 7.05669L19.3953 1.95752C19.8206 1.10585 20.5529 0.464705 21.4315 0.174747C22.31 -0.11521 23.2631 -0.030299 24.0817 0.410852L24.3369 0.555852L29.0001 3.67335L33.6633 0.555852C34.4417 0.0402721 35.3849 -0.13225 36.2854 0.0762033C37.1859 0.284656 37.9701 0.857027 38.4657 1.66752L38.6049 1.95752L41.1569 7.05669L46.6785 6.81502C47.594 6.77553 48.4874 7.11372 49.165 7.75619C49.8426 8.39866 50.2496 9.29357 50.2977 10.2467V10.585L50.0657 16.3367L54.9609 18.995C55.7785 19.4381 56.394 20.2009 56.6724 21.116C56.9507 22.0312 56.8692 23.024 56.4457 23.8767L56.3065 24.1425L53.3137 29L56.3065 33.8575C57.3273 35.5492 56.8401 37.7725 55.2393 38.86L54.9609 39.005L50.0657 41.6634L50.2977 47.415C50.3356 48.3686 50.0109 49.2994 49.3942 50.0052C48.7774 50.711 47.9183 51.1349 47.0033 51.185H46.6785L41.1569 50.9434L38.6049 56.0425C38.1796 56.8942 37.4473 57.5353 36.5687 57.8253C35.6902 58.1153 34.737 58.0303 33.9185 57.5892L33.6633 57.4442L29.0001 54.3267Z" fill="#BEB0F4"/>
<path d="M25.6796 34.498V34.998H26.1796H30.5402H31.0402V34.498V33.938C31.0402 33.3267 31.1376 32.867 31.302 32.5326C31.4949 32.1956 31.8968 31.7685 32.5652 31.2544L32.5674 31.2527L34.0075 30.1327L34.0075 30.1327L34.0101 30.1307C35.4263 29.0142 36.5108 27.8807 37.2432 26.7258C37.9982 25.5354 38.3611 24.0905 38.3611 22.418C38.3611 20.0076 37.5852 18.0178 36.0078 16.498C34.4244 14.9724 32.26 14.238 29.5801 14.238C26.5565 14.238 24.1151 15.0506 22.319 16.7316C20.5134 18.3946 19.6389 20.7281 19.6389 23.658V24.158H20.1389H24.7395H25.2395V23.658C25.2395 22.1132 25.6308 21.0357 26.3304 20.3344C27.0729 19.6167 28.0718 19.238 29.38 19.238C30.3885 19.238 31.1431 19.5456 31.7 20.1246L31.6999 20.1247L31.7069 20.1316C32.2884 20.7131 32.6005 21.5094 32.6005 22.578C32.6005 24.2358 31.856 25.6275 30.2854 26.7742L30.2854 26.7742L30.283 26.7759L28.4447 28.1345C28.4444 28.1347 28.4441 28.1349 28.4438 28.1352C27.3181 28.9589 26.5281 29.8117 26.1577 30.7068L26.1549 30.7137L26.1522 30.7207C25.8282 31.5747 25.6796 32.6966 25.6796 34.058V34.498ZM25.5789 43.0843L25.5789 43.0844L25.5861 43.0916C26.3455 43.851 27.2724 44.238 28.3399 44.238C29.4075 44.238 30.3343 43.851 31.0938 43.0916C31.8532 42.3323 32.2403 41.4055 32.2403 40.338C32.2403 39.2718 31.8538 38.3556 31.0901 37.6209C30.3314 36.8639 29.4058 36.478 28.3399 36.478C27.2724 36.478 26.3455 36.8651 25.5861 37.6245C24.849 38.3614 24.4795 39.2767 24.4795 40.338C24.4795 41.399 24.8485 42.3235 25.5789 43.0843Z" fill="#7356B6" stroke="white"/>
</g>
<defs>
<clipPath id="clip0">
<rect width="58" height="58" fill="white"/>
</clipPath>
</defs>
</svg>
