<svg width="59" height="58" viewBox="0 0 59 58" fill="none" xmlns="http://www.w3.org/2000/svg">
<g clip-path="url(#clip0)">
<path d="M29.5001 54.3267L24.7565 57.4442C23.9647 57.9598 23.0053 58.1323 22.0892 57.9238C21.1732 57.7154 20.3754 57.143 19.8713 56.3325L19.7297 56.0425L17.1337 50.9434L11.5169 51.185C10.5857 51.2245 9.67679 50.8863 8.98753 50.2439C8.29827 49.6014 7.88425 48.7065 7.83534 47.7534V47.415L8.07134 41.6634L3.09174 39.005C2.26004 38.562 1.63393 37.7992 1.35077 36.884C1.06761 35.9688 1.15053 34.976 1.58134 34.1234L1.72294 33.8575L4.76734 29L1.72294 24.1425C1.21945 23.3316 1.05097 22.3492 1.25454 21.4112C1.4581 20.4731 2.01705 19.6562 2.80854 19.14L3.09174 18.995L8.07134 16.3367L7.83534 10.585C7.79677 9.6314 8.12703 8.70069 8.75444 7.99488C9.38185 7.28906 10.2558 6.86511 11.1865 6.81502H11.5169L17.1337 7.05669L19.7297 1.95752C20.1624 1.10585 20.9073 0.464705 21.801 0.174747C22.6947 -0.11521 23.6643 -0.030299 24.4969 0.410852L24.7565 0.555852L29.5001 3.67335L34.2437 0.555852C35.0356 0.0402721 35.995 -0.13225 36.9111 0.0762033C37.8271 0.284656 38.6248 0.857027 39.1289 1.66752L39.2705 1.95752L41.8665 7.05669L47.4833 6.81502C48.4146 6.77553 49.3235 7.11372 50.0128 7.75619C50.702 8.39866 51.116 9.29357 51.1649 10.2467V10.585L50.9289 16.3367L55.9085 18.995C56.7402 19.4381 57.3664 20.2009 57.6495 21.116C57.9327 22.0312 57.8498 23.024 57.4189 23.8767L57.2773 24.1425L54.2329 29L57.2773 33.8575C58.3157 35.5492 57.8201 37.7725 56.1917 38.86L55.9085 39.005L50.9289 41.6634L51.1649 47.415C51.2035 48.3686 50.8732 49.2994 50.2458 50.0052C49.6184 50.711 48.7445 51.1349 47.8137 51.185H47.4833L41.8665 50.9434L39.2705 56.0425C38.8379 56.8942 38.093 57.5353 37.1993 57.8253C36.3055 58.1153 35.336 58.0303 34.5033 57.5892L34.2437 57.4442L29.5001 54.3267Z" fill="#87BBFD"/>
<path d="M39.8049 33.7484L39.805 33.7485C40.3681 33.1057 40.663 32.2855 40.663 31.2493C40.663 30.2131 40.3681 29.3929 39.805 28.7502L39.8004 28.7449L39.8004 28.7449C39.2813 28.1355 38.509 27.7999 37.3986 27.7999C36.3731 27.7999 35.6072 28.1284 35.0429 28.7546L39.8049 33.7484ZM39.8049 33.7484L39.8004 33.7537M39.8049 33.7484L39.8004 33.7537M39.8004 33.7537C39.2813 34.3631 38.509 34.6987 37.3986 34.6987M39.8004 33.7537L37.3986 34.6987M37.3986 34.6987C36.3715 34.6987 35.6055 34.3779 35.0426 33.7703C34.4835 33.1296 34.1888 32.3028 34.1888 31.2493C34.1888 30.1931 34.4848 29.3767 35.0424 28.7552L37.3986 34.6987ZM25.7431 37.6151L25.8523 37.967H26.2207H29.6305H30.3317L30.1032 37.3041L23.6655 18.6243L23.5493 18.2872H23.1928H20.4377H20.0811L19.965 18.6243L13.5273 37.3041L13.2988 37.967H14H17.4098H17.7782L17.8874 37.6151L18.5147 35.592H25.1157L25.7431 37.6151ZM41.0267 24.5316H40.5267V25.0316V25.3878C40.2537 25.1627 39.949 24.9662 39.6142 24.7982C38.8301 24.4048 37.9705 24.2114 37.044 24.2114C34.9986 24.2114 33.3211 24.8774 32.0672 26.2395C30.8251 27.571 30.2154 29.2544 30.2154 31.2493C30.2154 33.2546 30.7932 34.9447 31.9784 36.2781C33.1839 37.6343 34.8693 38.2872 36.9622 38.2872C37.8392 38.2872 38.6929 38.0917 39.5193 37.7068L39.5193 37.7068L39.5237 37.7047C39.8962 37.5267 40.2316 37.3213 40.5267 37.0873V37.467V37.967H41.0267H44H44.5V37.467V25.0316V24.5316H44H41.0267ZM21.8016 24.7905L23.9624 31.8434H19.6408L21.8016 24.7905Z" fill="#555ABF" stroke="white"/>
</g>
<defs>
<clipPath id="clip0">
<rect width="59" height="58" fill="white"/>
</clipPath>
</defs>
</svg>
