<svg width="58" height="58" viewBox="0 0 58 58" fill="none" xmlns="http://www.w3.org/2000/svg">
<path d="M29.0001 54.3271L24.2565 57.4446C23.4647 57.9601 22.5053 58.1327 21.5892 57.9242C20.6732 57.7158 19.8754 57.1434 19.3713 56.3329L19.2297 56.0429L16.6337 50.9437L11.0169 51.1854C10.0857 51.2249 9.17679 50.8867 8.48753 50.2442C7.79827 49.6017 7.38425 48.7068 7.33534 47.7537V47.4154L7.57134 41.6637L2.59174 39.0054C1.76004 38.5623 1.13393 37.7996 0.850771 36.8844C0.567612 35.9692 0.650533 34.9764 1.08134 34.1237L1.22294 33.8579L4.26734 29.0004L1.22294 24.1429C0.719449 23.332 0.550972 22.3496 0.754538 21.4115C0.958103 20.4735 1.51705 19.6566 2.30854 19.1404L2.59174 18.9954L7.57134 16.3371L7.33534 10.5854C7.29677 9.63177 7.62703 8.70106 8.25444 7.99524C8.88185 7.28943 9.75577 6.86547 10.6865 6.81539H11.0169L16.6337 7.05705L19.2297 1.95789C19.6624 1.10622 20.4073 0.465071 21.301 0.175113C22.1947 -0.114844 23.1643 -0.0299328 23.9969 0.411218L24.2565 0.556218L29.0001 3.67372L33.7437 0.556218C34.5356 0.0406383 35.495 -0.131884 36.4111 0.0765695C37.3271 0.285023 38.1248 0.857393 38.6289 1.66788L38.7705 1.95789L41.3665 7.05705L46.9833 6.81539C47.9146 6.77589 48.8235 7.11408 49.5128 7.75655C50.202 8.39903 50.616 9.29393 50.6649 10.2471V10.5854L50.4289 16.3371L55.4085 18.9954C56.2402 19.4384 56.8664 20.2012 57.1495 21.1164C57.4327 22.0316 57.3498 23.0244 56.9189 23.8771L56.7773 24.1429L53.7329 29.0004L56.7773 33.8579C57.8157 35.5496 57.3201 37.7729 55.6917 38.8604L55.4085 39.0054L50.4289 41.6637L50.6649 47.4154C50.7035 48.369 50.3732 49.2997 49.7458 50.0055C49.1184 50.7113 48.2445 51.1353 47.3137 51.1854H46.9833L41.3665 50.9437L38.7705 56.0429C38.3379 56.8946 37.593 57.5357 36.6993 57.8257C35.8055 58.1156 34.836 58.0307 34.0033 57.5896L33.7437 57.4446L29.0001 54.3271Z" fill="#36C5F0"/>
<rect x="26.4344" y="14.8276" width="16.7335" height="21.4652" fill="#006DB8" stroke="white" stroke-width="0.659171"/>
<rect x="30.2296" y="19.0234" width="9.14324" height="1.26709" fill="white"/>
<rect x="30.2295" y="24.2949" width="9.14324" height="1.26709" fill="white"/>
<rect x="30.2295" y="29.5664" width="9.14324" height="1.26709" fill="white"/>
<rect x="14.8235" y="21.7065" width="16.7335" height="21.4652" fill="#006DB8" stroke="white" stroke-width="0.659171"/>
<rect x="18.6187" y="26.2383" width="9.14324" height="1.26709" fill="white"/>
<rect x="18.6186" y="31.8047" width="9.14324" height="1.26709" fill="white"/>
<rect x="18.6186" y="37.3711" width="9.14324" height="1.26709" fill="white"/>
<path d="M23.1566 18.7872L25.2007 16.7881L23.1566 14.7891" stroke="#006DB8" stroke-linecap="round" stroke-linejoin="round"/>
<path d="M17.631 19.8582C17.631 18.7978 17.338 18.0169 18.1046 17.2671C18.8713 16.5173 20.0282 16.7877 21.1124 16.7877H25.2006" stroke="#006DB8" stroke-linecap="round" stroke-linejoin="round"/>
</svg>
