<svg width="58" height="58" viewBox="0 0 58 58" fill="none" xmlns="http://www.w3.org/2000/svg">
<g clip-path="url(#clip0)">
<path d="M29.0001 54.3267L24.3369 57.4442C23.5584 57.9598 22.6153 58.1323 21.7148 57.9238C20.8143 57.7154 20.0301 57.143 19.5345 56.3325L19.3953 56.0425L16.8433 50.9434L11.3217 51.185C10.4062 51.2245 9.51273 50.8863 8.83515 50.2439C8.15757 49.6014 7.75057 48.7065 7.70249 47.7534V47.415L7.93449 41.6634L3.03929 39.005C2.22169 38.562 1.60619 37.7992 1.32783 36.884C1.04947 35.9688 1.13098 34.976 1.55449 34.1234L1.69369 33.8575L4.68649 29L1.69369 24.1425C1.19873 23.3316 1.03311 22.3492 1.23323 21.4112C1.43334 20.4731 1.98282 19.6562 2.76089 19.14L3.03929 18.995L7.93449 16.3367L7.70249 10.585C7.66458 9.6314 7.98924 8.70069 8.60601 7.99488C9.22278 7.28906 10.0819 6.86511 10.9969 6.81502H11.3217L16.8433 7.05669L19.3953 1.95752C19.8206 1.10585 20.5529 0.464705 21.4315 0.174747C22.31 -0.11521 23.2631 -0.030299 24.0817 0.410852L24.3369 0.555852L29.0001 3.67335L33.6633 0.555852C34.4417 0.0402721 35.3849 -0.13225 36.2854 0.0762033C37.1859 0.284656 37.9701 0.857027 38.4657 1.66752L38.6049 1.95752L41.1569 7.05669L46.6785 6.81502C47.594 6.77553 48.4874 7.11372 49.165 7.75619C49.8426 8.39866 50.2496 9.29357 50.2977 10.2467V10.585L50.0657 16.3367L54.9609 18.995C55.7785 19.4381 56.394 20.2009 56.6724 21.116C56.9507 22.0312 56.8692 23.024 56.4457 23.8767L56.3065 24.1425L53.3137 29L56.3065 33.8575C57.3273 35.5492 56.8401 37.7725 55.2393 38.86L54.9609 39.005L50.0657 41.6634L50.2977 47.415C50.3356 48.3686 50.0109 49.2994 49.3942 50.0052C48.7774 50.711 47.9183 51.1349 47.0033 51.185H46.6785L41.1569 50.9434L38.6049 56.0425C38.1796 56.8942 37.4473 57.5353 36.5687 57.8253C35.6902 58.1153 34.737 58.0303 33.9185 57.5892L33.6633 57.4442L29.0001 54.3267Z" fill="#FCD669"/>
<path d="M30.0295 33.1027L29.6922 32.9562L29.4519 33.2344L22.9467 40.7658C22.9386 40.7752 22.9302 40.7842 22.9215 40.7929C22.2651 41.4485 21.3752 41.8166 20.4474 41.8164C19.5194 41.8161 18.6296 41.4474 17.9734 40.7912C17.3172 40.1351 16.9485 39.2452 16.9482 38.3173C16.948 37.3894 17.3162 36.4994 17.9719 35.8429C17.9802 35.8346 17.9894 35.826 17.9996 35.8172C17.9997 35.817 17.9999 35.8169 18.0001 35.8167L25.5303 29.3126L25.8095 29.0714L25.6614 28.7335C24.9779 27.1743 24.7782 25.4459 25.0881 23.772C25.398 22.0981 26.2032 20.5557 27.3994 19.3445C28.5957 18.1333 30.128 17.3091 31.7979 16.9785C33.4679 16.6479 35.1986 16.8262 36.7661 17.4903C36.8414 17.5223 36.9077 17.5723 36.9592 17.6359C37.0108 17.6996 37.046 17.7749 37.0616 17.8553C37.0773 17.9358 37.0729 18.0188 37.049 18.0972C37.025 18.1755 36.9822 18.2468 36.9243 18.3048C36.9243 18.3048 36.9243 18.3048 36.9243 18.3048L32.0575 23.1715L31.8683 23.3607L31.9208 23.6231L32.3922 25.9801L32.4576 26.307L32.7844 26.3724L35.1414 26.8438L35.4038 26.8963L35.5931 26.7071L40.4598 21.8403C40.4598 21.8403 40.4599 21.8403 40.4599 21.8402C40.5178 21.7823 40.5891 21.7396 40.6674 21.7156C40.7458 21.6917 40.8288 21.6873 40.9092 21.703C40.9897 21.7186 41.065 21.7538 41.1287 21.8054C41.1924 21.8569 41.2424 21.9234 41.2744 21.9988L41.2748 21.9998C41.94 23.5578 42.1225 25.2796 41.7987 26.9424C41.4748 28.6052 40.6596 30.1325 39.4584 31.327C38.2449 32.5325 36.6976 33.3462 35.0166 33.6627C33.3356 33.9793 31.5984 33.7842 30.0295 33.1027Z" fill="#CE7C3A" stroke="white"/>
</g>
<defs>
<clipPath id="clip0">
<rect width="58" height="58" fill="white"/>
</clipPath>
</defs>
</svg>
