<svg width="32" height="33" viewBox="0 0 32 33" fill="none" xmlns="http://www.w3.org/2000/svg">
<g clip-path="url(#clip0)">
<path d="M16 32.2411C24.8366 32.2411 32 25.2524 32 16.6314C32 8.01033 24.8366 1.02161 16 1.02161C7.16344 1.02161 0 8.01033 0 16.6314C0 25.2524 7.16344 32.2411 16 32.2411Z" fill="#BEB0F4"/>
<mask id="mask0" mask-type="alpha" maskUnits="userSpaceOnUse" x="0" y="1" width="32" height="32">
<path d="M16 32.2411C24.8366 32.2411 32 25.2524 32 16.6314C32 8.01033 24.8366 1.02161 16 1.02161C7.16344 1.02161 0 8.01033 0 16.6314C0 25.2524 7.16344 32.2411 16 32.2411Z" fill="#92BBF7"/>
</mask>
<g mask="url(#mask0)">
<path d="M4.79999 11.1679C4.79999 10.5469 5.05284 9.95139 5.50293 9.51228C5.95302 9.07317 6.56347 8.82648 7.19999 8.82648H24.8C25.4365 8.82648 26.047 9.07317 26.497 9.51228C26.9471 9.95139 27.2 10.5469 27.2 11.1679V32.2411C27.2 32.8621 26.9471 33.4577 26.497 33.8968C26.047 34.3359 25.4365 34.5826 24.8 34.5826H7.19999C6.56347 34.5826 5.95302 34.3359 5.50293 33.8968C5.05284 33.4577 4.79999 32.8621 4.79999 32.2411V11.1679Z" fill="#5B44BA"/>
<path d="M10.4545 25.6313H7.54545C7.24421 25.6313 7 25.8552 7 26.1313C7 26.4075 7.24421 26.6313 7.54545 26.6313H10.4545C10.7558 26.6313 11 26.4075 11 26.1313C11 25.8552 10.7558 25.6313 10.4545 25.6313Z" fill="white"/>
<path d="M7.00953 22.5407H13.4311V21.2757H9.0389V21.2041L10.9778 19.1707C12.7642 17.3617 13.2739 16.4977 13.2739 15.4046C13.2739 13.8342 11.9972 12.6313 10.1584 12.6313C8.33386 12.6313 7 13.8151 7 15.6003H8.40532C8.40056 14.5502 9.07701 13.8629 10.1298 13.8629C11.1207 13.8629 11.8734 14.4738 11.8734 15.4476C11.8734 16.3115 11.3589 16.9321 10.3108 18.0442L7.00953 21.4714V22.5407Z" fill="white"/>
<path d="M16.1941 22.6313C16.7134 22.6313 17.1469 22.2065 17.1469 21.6767C17.1469 21.1564 16.7134 20.7268 16.1941 20.7268C15.6701 20.7268 15.2414 21.1564 15.2414 21.6767C15.2414 22.2065 15.6701 22.6313 16.1941 22.6313Z" fill="white"/>
<path d="M20.179 15.2089H18.6165L20.865 18.8748L18.5879 22.5407H20.1505L21.794 19.8008L23.4422 22.5407H25L22.6991 18.8748L24.9809 15.2089H23.4232L21.794 18.0633L20.179 15.2089Z" fill="white"/>
</g>
</g>
<defs>
<clipPath id="clip0">
<rect width="32" height="32" fill="white" transform="translate(0 0.631348)"/>
</clipPath>
</defs>
</svg>
