<svg width="256" height="256" viewBox="0 0 256 256" fill="none" xmlns="http://www.w3.org/2000/svg">
<rect width="256" height="256" rx="128" fill="#C4C9FB"/>
<rect x="48" y="61" width="160" height="195" rx="20" fill="#5B44BA"/>
<path d="M95.419 176.955C90.3281 176.955 85.794 176.08 81.8168 174.33C77.8622 172.557 74.7372 170.125 72.4418 167.034C70.169 163.92 68.9986 160.33 68.9304 156.261H83.794C83.8849 157.966 84.4418 159.466 85.4645 160.761C86.5099 162.034 87.8963 163.023 89.6236 163.727C91.3509 164.432 93.294 164.784 95.4531 164.784C97.7031 164.784 99.6918 164.386 101.419 163.591C103.146 162.795 104.499 161.693 105.476 160.284C106.453 158.875 106.942 157.25 106.942 155.409C106.942 153.545 106.419 151.898 105.374 150.466C104.351 149.011 102.874 147.875 100.942 147.057C99.0327 146.239 96.7599 145.83 94.1236 145.83H87.6122V134.989H94.1236C96.3509 134.989 98.3168 134.602 100.021 133.83C101.749 133.057 103.089 131.989 104.044 130.625C104.999 129.239 105.476 127.625 105.476 125.784C105.476 124.034 105.055 122.5 104.214 121.182C103.396 119.841 102.237 118.795 100.737 118.045C99.2599 117.295 97.5327 116.92 95.5554 116.92C93.5554 116.92 91.7259 117.284 90.0668 118.011C88.4077 118.716 87.0781 119.727 86.0781 121.045C85.0781 122.364 84.544 123.909 84.4759 125.682H70.3281C70.3963 121.659 71.544 118.114 73.7713 115.045C75.9986 111.977 78.9986 109.58 82.7713 107.852C86.5668 106.102 90.8509 105.227 95.6236 105.227C100.442 105.227 104.658 106.102 108.271 107.852C111.885 109.602 114.692 111.966 116.692 114.943C118.714 117.898 119.714 121.216 119.692 124.898C119.714 128.807 118.499 132.068 116.044 134.682C113.612 137.295 110.442 138.955 106.533 139.659V140.205C111.669 140.864 115.578 142.648 118.26 145.557C120.964 148.443 122.305 152.057 122.283 156.398C122.305 160.375 121.158 163.909 118.839 167C116.544 170.091 113.374 172.523 109.328 174.295C105.283 176.068 100.646 176.955 95.419 176.955ZM136.757 176.591C135.257 176.591 133.969 176.061 132.893 175C131.833 173.924 131.303 172.636 131.303 171.136C131.303 169.652 131.833 168.379 132.893 167.318C133.969 166.258 135.257 165.727 136.757 165.727C138.212 165.727 139.484 166.258 140.575 167.318C141.666 168.379 142.212 169.652 142.212 171.136C142.212 172.136 141.954 173.053 141.439 173.886C140.939 174.705 140.28 175.364 139.462 175.864C138.643 176.348 137.742 176.591 136.757 176.591ZM159.57 129.455L168.956 145.318H169.32L178.751 129.455H189.865L175.661 152.727L190.183 176H178.865L169.32 160.114H168.956L159.411 176H148.138L162.706 152.727L148.411 129.455H159.57Z" fill="white"/>
<path d="M71 201H119" stroke="white" stroke-width="6" stroke-linecap="round"/>
</svg>
