<svg width="32" height="33" viewBox="0 0 32 33" fill="none" xmlns="http://www.w3.org/2000/svg">
<path d="M0 16.6313C0 7.79479 7.16344 0.631348 16 0.631348C24.8366 0.631348 32 7.79479 32 16.6313C32 25.4679 24.8366 32.6313 16 32.6313C7.16344 32.6313 0 25.4679 0 16.6313Z" fill="#FCA326"/>
<path d="M12.8788 20.4191H6.71681C5.95041 20.4191 5.46888 19.5924 5.84697 18.9258L8.9394 13.4734L12.0234 8.11704C12.4055 7.45334 13.3613 7.44794 13.7509 8.10728L16.9218 13.4734L20.0142 18.9258C20.3923 19.5924 19.9108 20.4191 19.1444 20.4191H12.8788Z" fill="#E24329"/>
<path d="M19.4876 23.0627H13.3256C12.5593 23.0627 12.0777 22.236 12.4558 21.5694L15.5482 16.1169L18.6322 10.7606C19.0144 10.0969 19.9702 10.0915 20.3598 10.7508L23.5307 16.1169L26.6231 21.5694C27.0012 22.236 26.5196 23.0627 25.7532 23.0627H19.4876Z" fill="white"/>
</svg>
