<svg width="282" height="55" viewBox="0 0 282 55" fill="none" xmlns="http://www.w3.org/2000/svg">
<path d="M69.7968 24.5671C72.0111 24.5671 73.7557 23.6854 75.1648 21.922L77.983 24.9062C75.7016 27.4834 73.0847 28.772 69.9981 28.772C66.9116 28.772 64.4289 27.8225 62.4159 25.8557C60.4029 23.8888 59.4635 21.4473 59.4635 18.4631C59.4635 15.4789 60.47 12.9695 62.483 11.0027C64.496 9.03583 66.9787 8.01851 69.931 8.01851C73.2189 8.01851 75.97 9.30712 78.1172 11.8165L75.3661 15.0042C73.957 13.2408 72.2124 12.3591 70.1323 12.3591C68.4549 12.3591 67.0458 12.9017 65.838 13.9868C64.6302 15.072 64.0263 16.5641 64.0263 18.4631C64.0263 20.3621 64.5631 21.8542 65.7038 23.0072C66.8445 23.9567 68.1865 24.5671 69.7968 24.5671ZM81.5393 28.5007V8.35762H85.9678V24.4992H94.4895V28.5007H81.5393ZM113.948 25.72C111.935 27.6869 109.453 28.7042 106.5 28.7042C103.548 28.7042 101.065 27.6869 99.0522 25.72C97.0392 23.7532 96.0327 21.2438 96.0327 18.3274C96.0327 15.4111 97.0392 12.9017 99.0522 10.9348C101.065 8.96801 103.548 7.95068 106.5 7.95068C109.453 7.95068 111.935 8.96801 113.948 10.9348C115.961 12.9017 116.968 15.4111 116.968 18.3274C116.968 21.2438 115.961 23.7532 113.948 25.72ZM112.405 18.3274C112.405 16.5641 111.801 15.0042 110.728 13.7155C109.587 12.4269 108.178 11.8165 106.5 11.8165C104.823 11.8165 103.414 12.4269 102.273 13.7155C101.132 15.0042 100.528 16.4962 100.528 18.3274C100.528 20.1586 101.132 21.6507 102.273 22.9393C103.414 24.228 104.823 24.8384 106.5 24.8384C108.178 24.8384 109.587 24.228 110.728 22.9393C111.868 21.6507 112.405 20.1586 112.405 18.3274ZM126.026 23.3463C126.764 24.2958 127.771 24.7705 129.046 24.7705C130.321 24.7705 131.327 24.2958 131.998 23.3463C132.736 22.3968 133.072 21.1081 133.072 19.5482V8.35762H137.5V19.6161C137.5 22.5324 136.695 24.7705 135.085 26.3304C133.474 27.8903 131.461 28.7042 128.979 28.7042C126.496 28.7042 124.416 27.8903 122.805 26.3304C121.195 24.7705 120.39 22.5324 120.39 19.6161V8.35762H124.818V19.4804C124.886 21.1081 125.288 22.3968 126.026 23.3463ZM157.362 11.0027C159.24 12.766 160.247 15.2076 160.247 18.3274C160.247 21.4473 159.308 23.9567 157.496 25.7879C155.617 27.6191 152.799 28.5007 149.041 28.5007H142.13V8.35762H149.176C152.732 8.35762 155.483 9.2393 157.362 11.0027ZM154.141 23.0072C155.214 21.9898 155.751 20.4299 155.751 18.4631C155.751 16.4963 155.214 14.9363 154.141 13.919C153.067 12.8339 151.39 12.2913 149.108 12.2913H146.626V24.5671H149.444C151.457 24.5671 153 24.0245 154.141 23.0072ZM185.543 8.35762H190.039V28.5007H185.543L176.082 15.8859V28.5007H171.587V8.35762H175.814L185.543 21.3794V8.35762ZM209.095 28.5007L207.217 24.1601H198.829L196.95 28.5007H192.186L200.775 8.35762H205.069L213.658 28.5007H209.095ZM203.124 14.3938L200.641 20.2265H205.606L203.124 14.3938ZM223.186 12.2913V28.5007H218.691V12.2913H213.054V8.35762H228.823V12.2913H223.186ZM232.043 8.35762H236.472V28.5007H232.043V8.35762ZM248.751 21.176L253.851 8.35762H258.682L250.63 28.5007H246.872L238.888 8.35762H243.719L248.751 21.176ZM275.39 8.35762V12.3591H265.459V16.5641H274.383V20.3621H265.459V24.5671H275.725V28.5007H261.03V8.35762H275.39ZM64.6973 45.6597C65.9051 45.6597 66.9116 45.1849 67.7168 44.1676L69.3271 45.8632C68.0523 47.2874 66.5761 48.0335 64.8315 48.0335C63.0869 48.0335 61.6778 47.4909 60.6042 46.4057C59.4635 45.3206 58.9267 43.8963 58.9267 42.2686C58.9267 40.573 59.4635 39.2166 60.6042 38.0636C61.7449 36.9107 63.154 36.3681 64.7644 36.3681C66.5761 36.3681 68.1194 37.0463 69.3942 38.4706L67.851 40.2339C67.0458 39.2166 66.1064 38.7419 64.8986 38.7419C63.9592 38.7419 63.154 39.081 62.483 39.6914C61.812 40.3018 61.4765 41.1156 61.4765 42.2008C61.4765 43.2859 61.812 44.0998 62.4159 44.7102C63.0198 45.3884 63.825 45.6597 64.6973 45.6597ZM80.3986 46.3379C79.2579 47.4231 77.8488 48.0335 76.2384 48.0335C74.628 48.0335 73.2189 47.4909 72.0782 46.3379C70.9375 45.2528 70.4007 43.8285 70.4007 42.2008C70.4007 40.573 70.9375 39.1488 72.0782 38.0636C73.2189 36.9785 74.628 36.3681 76.2384 36.3681C77.8488 36.3681 79.2579 36.9107 80.3986 38.0636C81.5393 39.1488 82.076 40.573 82.076 42.2008C82.076 43.8285 81.5393 45.2528 80.3986 46.3379ZM79.5934 42.2008C79.5934 41.1834 79.2579 40.3018 78.654 39.6235C77.983 38.9453 77.2449 38.5384 76.3055 38.5384C75.3661 38.5384 74.5609 38.8775 73.957 39.6235C73.286 40.3018 73.0176 41.1834 73.0176 42.2008C73.0176 43.2181 73.3531 44.032 73.957 44.778C74.628 45.4562 75.3661 45.8632 76.3055 45.8632C77.2449 45.8632 78.0501 45.524 78.654 44.778C79.2579 44.0998 79.5934 43.2181 79.5934 42.2008ZM94.2211 40.7765L91.2016 47.0161H89.7254L86.7059 40.7765V47.8978H84.2232V36.6394H87.5782L90.4635 42.8112L93.3488 36.6394H96.7037V47.8978H94.2211V40.7765ZM107.171 37.6567C107.976 38.3349 108.379 39.3523 108.379 40.7765C108.379 42.2008 107.976 43.2181 107.171 43.8285C106.366 44.5067 105.158 44.778 103.481 44.778H102.005V47.8978H99.5219V36.6394H103.481C105.158 36.6394 106.366 36.9785 107.171 37.6567ZM105.36 42.0651C105.628 41.726 105.829 41.2513 105.829 40.573C105.829 39.8948 105.628 39.4879 105.225 39.2166C104.823 38.9453 104.219 38.8097 103.414 38.8097H102.005V42.6077H103.682C104.487 42.6077 105.024 42.4042 105.36 42.0651ZM113.277 44.9815C113.68 45.524 114.284 45.7953 114.955 45.7953C115.626 45.7953 116.23 45.524 116.632 44.9815C117.035 44.4389 117.236 43.7607 117.236 42.8112V36.5715H119.719V42.879C119.719 44.5067 119.249 45.7953 118.377 46.677C117.505 47.5587 116.364 47.9656 114.955 47.9656C113.546 47.9656 112.405 47.4909 111.533 46.6092C110.66 45.7275 110.191 44.4389 110.191 42.8112V36.5037H112.673V42.879C112.673 43.7607 112.875 44.5067 113.277 44.9815ZM127.033 38.8097V47.8978H124.55V38.8097H121.396V36.6394H130.186V38.8097H127.033ZM132.065 36.6394H134.548V47.9656H132.065V36.6394ZM145.082 36.6394H147.565V47.8978H145.082L139.782 40.8443V47.8978H137.299V36.6394H139.58L145.082 43.8963V36.6394ZM157.63 42.2008H160.113V46.2023C158.972 47.4231 157.496 48.1013 155.483 48.1013C153.872 48.1013 152.463 47.5587 151.323 46.4736C150.182 45.3884 149.645 43.9641 149.645 42.3364C149.645 40.6409 150.182 39.2844 151.323 38.1315C152.463 36.9785 153.805 36.4359 155.416 36.4359C157.026 36.4359 158.435 36.9785 159.576 38.0636L158.301 39.9626C157.831 39.4879 157.362 39.2166 156.892 39.081C156.489 38.9453 156.02 38.8097 155.55 38.8097C154.611 38.8097 153.805 39.1488 153.134 39.7592C152.463 40.4374 152.128 41.2513 152.128 42.3364C152.128 43.4216 152.463 44.2354 153.067 44.9137C153.671 45.524 154.409 45.8632 155.282 45.8632C156.154 45.8632 156.892 45.7275 157.429 45.3884L157.63 42.2008ZM174.204 36.6394V38.8097H169.037V41.2513H174.002V43.4894H169.037V47.8978H166.554V36.6394H174.204ZM185.745 46.3379C184.604 47.4231 183.195 48.0335 181.585 48.0335C179.907 48.0335 178.565 47.4909 177.424 46.3379C176.284 45.2528 175.747 43.8285 175.747 42.2008C175.747 40.573 176.284 39.1488 177.424 38.0636C178.565 36.9785 179.974 36.3681 181.585 36.3681C183.262 36.3681 184.604 36.9107 185.745 38.0636C186.885 39.1488 187.422 40.573 187.422 42.2008C187.422 43.8285 186.885 45.2528 185.745 46.3379ZM184.872 42.2008C184.872 41.1834 184.537 40.3018 183.933 39.6235C183.262 38.9453 182.524 38.5384 181.585 38.5384C180.645 38.5384 179.84 38.8775 179.236 39.6235C178.565 40.3018 178.297 41.1834 178.297 42.2008C178.297 43.2181 178.632 44.032 179.236 44.778C179.907 45.4562 180.645 45.8632 181.585 45.8632C182.524 45.8632 183.329 45.524 183.933 44.778C184.604 44.0998 184.872 43.2181 184.872 42.2008ZM192.522 44.9815C192.924 45.524 193.528 45.7953 194.199 45.7953C194.87 45.7953 195.474 45.524 195.877 44.9815C196.279 44.4389 196.481 43.7607 196.481 42.8112V36.5715H198.963V42.879C198.963 44.5067 198.494 45.7953 197.621 46.677C196.749 47.5587 195.608 47.9656 194.199 47.9656C192.79 47.9656 191.65 47.4909 190.777 46.6092C189.905 45.7275 189.435 44.4389 189.435 42.8112V36.5037H191.918V42.879C191.851 43.7607 192.119 44.5067 192.522 44.9815ZM209.364 36.6394H211.846V47.8978H209.364L204.063 40.8443V47.8978H201.58V36.6394H203.862L209.364 43.8963V36.6394ZM223.119 38.1315C224.193 39.1488 224.73 40.5052 224.73 42.2686C224.73 44.032 224.193 45.3884 223.186 46.4057C222.18 47.4231 220.569 47.9656 218.422 47.9656H214.598V36.6394H218.556C220.569 36.6394 222.113 37.1141 223.119 38.1315ZM221.307 44.8458C221.911 44.2354 222.247 43.4216 222.247 42.3364C222.247 41.2513 221.911 40.3696 221.307 39.7592C220.704 39.1488 219.764 38.8775 218.489 38.8775H217.08V45.7275H218.691C219.831 45.6597 220.704 45.3884 221.307 44.8458ZM234.526 47.8978L233.52 45.4562H228.823L227.816 47.8978H225.132L229.963 36.5715H232.379L237.21 47.8978H234.526ZM231.171 39.9626L229.762 43.2181H232.58L231.171 39.9626ZM242.444 38.8097V47.8978H239.894V38.8097H236.74V36.6394H245.597V38.8097H242.444ZM247.409 36.6394H249.892V47.9656H247.409V36.6394ZM262.037 46.3379C260.896 47.4231 259.487 48.0335 257.877 48.0335C256.199 48.0335 254.857 47.4909 253.717 46.3379C252.576 45.2528 252.039 43.8285 252.039 42.2008C252.039 40.573 252.576 39.1488 253.717 38.0636C254.857 36.9785 256.266 36.3681 257.877 36.3681C259.554 36.3681 260.896 36.9107 262.037 38.0636C263.178 39.1488 263.714 40.573 263.714 42.2008C263.714 43.8285 263.178 45.2528 262.037 46.3379ZM261.232 42.2008C261.232 41.1834 260.896 40.3018 260.292 39.6235C259.621 38.9453 258.883 38.5384 257.944 38.5384C257.004 38.5384 256.199 38.8775 255.595 39.6235C254.924 40.3018 254.656 41.1834 254.656 42.2008C254.656 43.2181 254.991 44.032 255.595 44.778C256.266 45.4562 257.004 45.8632 257.944 45.8632C258.883 45.8632 259.688 45.524 260.292 44.778C260.896 44.0998 261.232 43.2181 261.232 42.2008ZM273.645 36.6394H276.195V47.8978H273.645L268.344 40.8443V47.8978H265.862V36.6394H268.21L273.645 43.8963V36.6394Z" fill="#1C1438"/>
<path d="M11.6216 34.5369H5.51559V49.0508H19.8078V42.8112H11.6216V34.5369ZM42.3532 34.6047V42.8112H34.1671V42.7433V49.0508H48.4593V34.5369H42.2861L42.3532 34.6047ZM5.51559 20.0908H11.6887L11.6216 20.023V11.8165H19.8078V5.5769H5.51559V20.0908ZM34.1671 5.5769V11.8165H42.3532V20.0908H48.4593V5.5769H34.1671Z" fill="#446CA9"/>
<path d="M33.3619 20.0908L25.1757 11.8165H34.1671V5.5769H19.8078V11.8165L27.9939 20.0908H33.3619ZM25.9809 34.5369H20.613L27.39 41.3869L28.732 42.8112H19.8078V49.0508H34.1671V42.7433L30.074 38.674L25.9809 34.5369ZM42.3532 20.0908V29.1111L40.9441 27.6869L34.1671 20.8368V26.3304L38.193 30.3997L42.2861 34.5369H48.4593V20.0908H42.3532ZM19.8078 28.2973L11.6887 20.0908H5.51559V34.5369H11.6216V25.5166L19.8078 33.7908V28.2973Z" fill="#76C4D5"/>
</svg>
