<svg width="16" height="16" viewBox="0 0 16 16" fill="none" xmlns="http://www.w3.org/2000/svg">
<path fill-rule="evenodd" clip-rule="evenodd" d="M5.128 0H10.872C12.655 0 13.302 0.186 13.954 0.534C14.606 0.883 15.117 1.394 15.466 2.046C15.815 2.698 16 3.345 16 5.128V10.872C16 12.655 15.814 13.302 15.466 13.954C15.125 14.5982 14.5982 15.125 13.954 15.466C13.302 15.814 12.655 16 10.872 16H5.128C3.345 16 2.698 15.814 2.046 15.466C1.394 15.118 0.883 14.606 0.534 13.954C0.186 13.302 0 12.655 0 10.872V5.128C0 3.345 0.186 2.698 0.534 2.046C0.875009 1.40181 1.40181 0.875009 2.046 0.534C2.698 0.186 3.345 0 5.128 0ZM9 11C8.73478 11 8.48043 11.1054 8.29289 11.2929C8.10536 11.4804 8 11.7348 8 12C8 12.2652 8.10536 12.5196 8.29289 12.7071C8.48043 12.8946 8.73478 13 9 13H12C12.2652 13 12.5196 12.8946 12.7071 12.7071C12.8946 12.5196 13 12.2652 13 12C13 11.7348 12.8946 11.4804 12.7071 11.2929C12.5196 11.1054 12.2652 11 12 11H9ZM8 8.997C8.00052 8.85063 7.9688 8.70594 7.9071 8.57321C7.8454 8.44048 7.75523 8.32296 7.643 8.229L4.702 5.288C4.5134 5.10584 4.2608 5.00505 3.9986 5.00733C3.7364 5.0096 3.48559 5.11477 3.30018 5.30018C3.11477 5.48559 3.0096 5.7364 3.00733 5.9986C3.00505 6.2608 3.10584 6.5134 3.288 6.702L5.583 8.997L3.288 11.293C3.10584 11.4816 3.00505 11.7342 3.00733 11.9964C3.0096 12.2586 3.11477 12.5094 3.30018 12.6948C3.48559 12.8802 3.7364 12.9854 3.9986 12.9877C4.2608 12.99 4.5134 12.8892 4.702 12.707L7.643 9.766C7.665 9.747 7.687 9.728 7.707 9.707C7.80036 9.6139 7.87432 9.50322 7.92462 9.38135C7.97491 9.25948 8.00053 9.12884 8 8.997Z" fill="#777288"/>
</svg>
