<svg width="12" height="16" viewBox="0 0 12 16" fill="none" xmlns="http://www.w3.org/2000/svg">
<path fill-rule="evenodd" clip-rule="evenodd" d="M5 5H7C7.79565 5 8.55871 4.68393 9.12132 4.12132C9.68393 3.55871 10 2.79565 10 2C10.5304 2 11.0391 2.21071 11.4142 2.58579C11.7893 2.96086 12 3.46957 12 4V14C12 14.5304 11.7893 15.0391 11.4142 15.4142C11.0391 15.7893 10.5304 16 10 16H2C1.46957 16 0.960859 15.7893 0.585786 15.4142C0.210714 15.0391 0 14.5304 0 14V4C0 3.46957 0.210714 2.96086 0.585786 2.58579C0.960859 2.21071 1.46957 2 2 2C2 2.79565 2.31607 3.55871 2.87868 4.12132C3.44129 4.68393 4.20435 5 5 5ZM4 2C4 1.46957 4.21071 0.960859 4.58579 0.585786C4.96086 0.210714 5.46957 0 6 0C6.53043 0 7.03914 0.210714 7.41421 0.585786C7.78929 0.960859 8 1.46957 8 2C8 2.26522 7.89464 2.51957 7.70711 2.70711C7.51957 2.89464 7.26522 3 7 3H5C4.73478 3 4.48043 2.89464 4.29289 2.70711C4.10536 2.51957 4 2.26522 4 2Z" fill="#777288"/>
</svg>
