<svg width="32" height="33" viewBox="0 0 32 33" fill="none" xmlns="http://www.w3.org/2000/svg">
<path d="M0 16.6313C0 7.79479 7.16344 0.631348 16 0.631348C24.8366 0.631348 32 7.79479 32 16.6313C32 25.4679 24.8366 32.6313 16 32.6313C7.16344 32.6313 0 25.4679 0 16.6313Z" fill="#BEB0F4"/>
<path d="M30.2667 17.258L7.73335 28.2447C7.61246 28.3082 7.47548 28.3347 7.33961 28.3207C7.20374 28.3067 7.07503 28.2529 6.96963 28.166C6.86424 28.0791 6.78685 27.963 6.74719 27.8323C6.70753 27.7016 6.70735 27.5621 6.74669 27.4313L9.82669 16.6313H30.6667C30.6698 16.7637 30.6334 16.894 30.5622 17.0056C30.4909 17.1172 30.3881 17.2051 30.2667 17.258Z" fill="white"/>
<path d="M7.73335 5.01802L30.2667 16.0047C30.3881 16.0576 30.4909 16.1455 30.5622 16.2571C30.6334 16.3687 30.6698 16.499 30.6667 16.6313H9.82669L6.74669 5.83135C6.70735 5.70055 6.70753 5.56104 6.74719 5.43033C6.78685 5.29963 6.86424 5.18355 6.96963 5.09667C7.07503 5.00979 7.20374 4.95598 7.33961 4.94198C7.47548 4.92799 7.61246 4.95444 7.73335 5.01802Z" fill="#7356B6"/>
</svg>
