<svg width="85" height="33" viewBox="0 0 85 33" fill="none" xmlns="http://www.w3.org/2000/svg">
<path d="M40.8211 22.4752V24.0609H34.0838V9.02686H36.0657V22.4752H40.8211Z" fill="#2E225D"/>
<path d="M45.1771 24.061H43.1979V12.9571H45.1771V24.061ZM44.1864 10.9951C43.8603 10.9951 43.5768 10.8898 43.3358 10.6793C43.109 10.4547 42.9995 10.1602 42.9995 9.79525C42.9995 9.43028 43.109 9.14219 43.3358 8.93163C43.5768 8.70703 43.8603 8.59473 44.1864 8.59473C44.5124 8.59473 44.7888 8.70703 45.0157 8.93163C45.2567 9.14219 45.3772 9.42995 45.3772 9.79493C45.3772 10.1599 45.2567 10.4547 45.0157 10.6793C44.7888 10.8898 44.5124 10.9951 44.1864 10.9951Z" fill="#2E225D"/>
<path d="M49.5397 12.9576H52.3135V14.5158H49.5397L49.5386 20.3987C49.5386 21.1567 49.6733 21.6902 49.9427 21.999C50.2262 22.2938 50.6019 22.4411 51.0697 22.4411C51.3107 22.4411 51.5376 22.4061 51.7502 22.3359C51.977 22.2657 52.1683 22.1814 52.3243 22.0832L52.6858 23.5361C52.1046 23.873 51.3363 24.0414 50.6842 24.0414C49.6351 24.0414 48.8483 23.7537 48.3237 23.1782C47.8134 22.5886 47.5582 21.62 47.5582 20.2723L47.5593 9.98869L49.5397 9.67285V12.9576Z" fill="#2E225D"/>
<path d="M54.6913 12.729C55.1976 12.5697 55.7473 12.4392 56.3403 12.3379C56.9333 12.222 57.4756 12.1641 57.9675 12.1641C58.4738 12.1641 58.9293 12.2293 59.3343 12.3596C59.7537 12.4899 60.1226 12.7072 60.4408 13.0115C60.8168 12.7652 61.2218 12.5624 61.6557 12.4031C62.0896 12.2437 62.5671 12.1641 63.0878 12.1641C63.6084 12.1641 64.0784 12.2437 64.498 12.4031C64.9319 12.548 65.3007 12.8014 65.6044 13.1635C65.9081 13.5257 66.1469 14.0182 66.3204 14.6411C66.494 15.2495 66.5808 16.0099 66.5808 16.9225V24.0611H64.715V17.0747C64.715 15.9447 64.5848 15.119 64.3243 14.5976C64.064 14.0762 63.5722 13.8154 62.849 13.8154C62.5742 13.8154 62.2923 13.8661 62.0029 13.9675C61.7281 14.0689 61.4677 14.2065 61.2218 14.3803C61.3375 14.7135 61.4243 15.0901 61.4822 15.5101C61.54 15.9303 61.569 16.401 61.569 16.9225V24.0611H59.7032V17.0747C59.7032 15.9447 59.573 15.119 59.3126 14.5976C59.0523 14.0762 58.5605 13.8154 57.8373 13.8154C57.4612 13.8154 57.0346 13.8879 56.5573 14.0327L56.5573 24.0611H54.6913V12.729Z" fill="#2E225D"/>
<path d="M76.0697 23.5141C75.8854 23.5843 75.6585 23.6545 75.3892 23.7247C75.134 23.7808 74.8576 23.8299 74.5599 23.872C74.2764 23.9283 73.9857 23.9703 73.688 23.9985C73.4045 24.0405 73.1422 24.0615 72.9012 24.0615C72.3199 24.0615 71.7884 23.9914 71.3063 23.851C70.8243 23.7247 70.4132 23.493 70.0729 23.1562C69.7327 22.8193 69.4705 22.363 69.2861 21.7875C69.1018 21.198 69.0097 20.461 69.0097 19.5766V12.9575H70.8384V19.5134C70.8384 20.5943 71.0015 21.3594 71.3276 21.8086C71.6678 22.2437 72.1782 22.4613 72.8586 22.4613C73.0854 22.4613 73.3123 22.4543 73.5391 22.4402C73.766 22.4121 73.9999 22.363 74.2409 22.2928V12.9575H76.0697V23.5141Z" fill="#2E225D"/>
<path d="M80.6875 22.4634C81.2633 22.4634 81.6951 22.3122 81.983 22.0099C82.286 21.6932 82.4376 21.283 82.4376 20.7792C82.4376 20.4625 82.377 20.1962 82.2557 19.9803C82.1345 19.75 81.9754 19.5484 81.7784 19.3757C81.5814 19.203 81.3542 19.0519 81.0966 18.9223C80.839 18.7784 80.5815 18.6272 80.3239 18.4689C80.0663 18.3249 79.8163 18.1594 79.5738 17.9722C79.3314 17.7707 79.1118 17.5477 78.9148 17.303C78.733 17.0438 78.5815 16.7559 78.4603 16.4393C78.3542 16.1081 78.3011 15.7267 78.3011 15.2949C78.3011 14.3593 78.6041 13.6036 79.2102 13.0278C79.8314 12.452 80.6649 12.1641 81.7103 12.1641C82.1497 12.1641 82.5664 12.2217 82.9603 12.3368C83.3543 12.4375 83.68 12.5527 83.9375 12.6823L83.5058 14.1721C83.2331 14.0281 82.9604 13.9202 82.6876 13.8483C82.4149 13.7763 82.1194 13.7402 81.8012 13.7402C81.3164 13.7402 80.9299 13.877 80.6421 14.1505C80.3542 14.4096 80.2103 14.7911 80.2103 15.2949C80.2103 15.5828 80.2633 15.8347 80.3693 16.0506C80.4754 16.2521 80.6118 16.4393 80.7784 16.612C80.9602 16.7704 81.1572 16.9215 81.3693 17.0654C81.5966 17.2094 81.8315 17.3461 82.0739 17.4757C82.3618 17.634 82.6422 17.8067 82.9149 17.9938C83.2028 18.181 83.4527 18.4041 83.6648 18.6632C83.8921 18.9079 84.0739 19.203 84.2103 19.5484C84.3466 19.8795 84.4149 20.2826 84.4149 20.7575C84.4149 21.7508 84.1042 22.5498 83.483 23.1543C82.877 23.7589 81.983 24.0611 80.8012 24.0611C80.1952 24.0611 79.6496 23.982 79.1648 23.8236C78.6799 23.6653 78.3163 23.5214 78.0739 23.3918L78.4829 21.8588C78.7102 21.974 79.0132 22.1035 79.392 22.2474C79.786 22.3914 80.2178 22.4634 80.6875 22.4634Z" fill="#2E225D"/>
<path fill-rule="evenodd" clip-rule="evenodd" d="M25.7604 0.26709H0V30.3469C0 31.6939 1.08125 32.7858 2.41504 32.7858H23.3454C24.6792 32.7858 25.7604 31.6939 25.7604 30.3469V0.26709Z" fill="#858CDD"/>
<path d="M3.96313 4.23242H7.92628V13.3535H3.96313V4.23242Z" fill="#4028A0"/>
<path d="M3.96313 12.5605H7.92628V28.8199H3.96313V12.5605Z" fill="white"/>
<path d="M9.9079 24.8545H21.7973V28.8202H9.9079V24.8545Z" fill="white"/>
</svg>
