<svg width="32" height="33" viewBox="0 0 32 33" fill="none" xmlns="http://www.w3.org/2000/svg">
<g clip-path="url(#clip0)">
<path d="M16 32.2411C24.8366 32.2411 32 25.2524 32 16.6314C32 8.01033 24.8366 1.02161 16 1.02161C7.16344 1.02161 0 8.01033 0 16.6314C0 25.2524 7.16344 32.2411 16 32.2411Z" fill="#85D996"/>
<mask id="mask0" mask-type="alpha" maskUnits="userSpaceOnUse" x="0" y="1" width="32" height="32">
<path d="M16 32.2411C24.8366 32.2411 32 25.2524 32 16.6314C32 8.01033 24.8366 1.02161 16 1.02161C7.16344 1.02161 0 8.01033 0 16.6314C0 25.2524 7.16344 32.2411 16 32.2411Z" fill="#92BBF7"/>
</mask>
<g mask="url(#mask0)">
<circle cx="13" cy="11.6313" r="7" fill="white"/>
</g>
<path d="M19.0002 18.041V12.7251C19.0002 12.2693 18.8191 11.8321 18.4968 11.5098C18.1745 11.1874 17.7373 11.0063 17.2815 11.0063C16.8256 11.0063 16.3885 11.1874 16.0661 11.5098C15.7438 11.8321 15.5627 12.2693 15.5627 12.7251V23.1464L13.6783 19.8825C13.5656 19.6869 13.4154 19.5153 13.2363 19.3777C13.0572 19.2402 12.8528 19.1392 12.6347 19.0807C12.4165 19.0221 12.189 19.0071 11.9651 19.0366C11.7412 19.066 11.5253 19.1393 11.3297 19.2522C11.1342 19.3651 10.9628 19.5154 10.8253 19.6946C10.6879 19.8738 10.5871 20.0784 10.5287 20.2965C10.4704 20.5147 10.4556 20.7422 10.4852 20.9661C10.5148 21.19 10.5883 21.4058 10.7014 21.6013C13.5002 27.5063 15.2033 29.5688 19.0002 29.5688C19.9031 29.5688 20.797 29.391 21.6312 29.0455C22.4653 28.7 23.2232 28.1936 23.8616 27.5552C24.5 26.9168 25.0064 26.1589 25.3519 25.3248C25.6974 24.4907 25.8752 23.5967 25.8752 22.6938V19.2563C25.8752 18.8005 25.6941 18.3633 25.3718 18.041C25.0495 17.7187 24.6123 17.5376 24.1565 17.5376C23.7006 17.5376 23.2635 17.7187 22.9411 18.041C22.6188 18.3633 20.5 17.1313 20.5 17.1313" fill="#109B67"/>
<path d="M19.0002 18.041V12.7251C19.0002 12.2693 18.8191 11.8321 18.4968 11.5098C18.1745 11.1874 17.7373 11.0063 17.2815 11.0063C16.8256 11.0063 16.3885 11.1874 16.0661 11.5098C15.7438 11.8321 15.5627 12.2693 15.5627 12.7251V23.1464L13.6783 19.8825C13.5656 19.6869 13.4154 19.5153 13.2363 19.3777C13.0572 19.2402 12.8528 19.1392 12.6347 19.0807C12.4165 19.0221 12.189 19.0071 11.9651 19.0366C11.7412 19.066 11.5253 19.1393 11.3297 19.2522C11.1342 19.3651 10.9628 19.5154 10.8253 19.6946C10.6879 19.8738 10.5871 20.0784 10.5287 20.2965C10.4704 20.5147 10.4556 20.7422 10.4852 20.9661C10.5148 21.19 10.5883 21.4058 10.7014 21.6013C13.5002 27.5063 15.2033 29.5688 19.0002 29.5688C19.9031 29.5688 20.797 29.391 21.6312 29.0455C22.4653 28.7 23.2232 28.1936 23.8616 27.5552C24.5 26.9168 25.0064 26.1589 25.3519 25.3248C25.6974 24.4907 25.8752 23.5967 25.8752 22.6938V19.2563C25.8752 18.8005 25.6941 18.3633 25.3718 18.041C25.0495 17.7187 24.6123 17.5376 24.1565 17.5376C23.7006 17.5376 23.2635 17.7187 22.9411 18.041C22.6188 18.3633 20.5 17.1313 20.5 17.1313" stroke="#109B67" stroke-width="1.375" stroke-linecap="round" stroke-linejoin="round"/>
<path d="M22.4375 19.2563V18.2251C22.4375 17.7693 22.3223 17.4537 22 17.1313C21.5 16.6313 20.9558 16.6313 20.5 16.6313C20.0442 16.6313 19.8223 16.809 19.5 17.1313C19.1777 17.4537 19 17.7693 19 18.2251V18.6313" stroke="#109B67" stroke-width="1.375" stroke-linecap="round" stroke-linejoin="round"/>
</g>
<defs>
<clipPath id="clip0">
<rect width="32" height="32" fill="white" transform="translate(0 0.631348)"/>
</clipPath>
</defs>
</svg>
