<svg width="19" height="20" viewBox="0 0 19 20" fill="none" xmlns="http://www.w3.org/2000/svg">
<path d="M9.50106 0.603639C4.2517 0.601458 0 4.96662 0 10.3544C0 14.6149 2.6597 18.2365 6.36376 19.5666C6.86259 19.6952 6.78617 19.3311 6.78617 19.0825V17.3927C3.90571 17.7394 3.78896 15.7814 3.5958 15.4543C3.20523 14.7697 2.28187 14.5953 2.55781 14.2682C3.21372 13.9215 3.88236 14.3554 4.65713 15.5307C5.21752 16.3832 6.31069 16.2393 6.86471 16.0976C6.9857 15.5852 7.24467 15.1273 7.60127 14.7719C4.6168 14.2224 3.37292 12.3516 3.37292 10.1276C3.37292 9.04832 3.71891 8.05624 4.39817 7.25604C3.96514 5.9369 4.4385 4.80745 4.50218 4.63956C5.73545 4.52618 7.01754 5.5466 7.11731 5.62728C7.81779 5.43322 8.61803 5.33074 9.5138 5.33074C10.4138 5.33074 11.2162 5.43758 11.923 5.63382C12.1629 5.44631 13.3516 4.56978 14.4978 4.67662C14.5594 4.84452 15.0221 5.9478 14.6146 7.2495C15.3023 8.05188 15.6526 9.05269 15.6526 10.1342C15.6526 12.3625 14.4002 14.2355 11.4072 14.7762C11.6636 15.0352 11.8671 15.344 12.006 15.6847C12.1448 16.0254 12.2162 16.3911 12.216 16.7604V19.2133C12.2329 19.4096 12.216 19.6036 12.5344 19.6036C16.2936 18.3019 19 14.6541 19 10.3566C19 4.96662 14.7462 0.603639 9.50106 0.603639Z" fill="white"/>
</svg>
