<svg width="32" height="33" viewBox="0 0 32 33" fill="none" xmlns="http://www.w3.org/2000/svg">
<path d="M0 16.6313C0 7.79479 7.16344 0.631348 16 0.631348C24.8366 0.631348 32 7.79479 32 16.6313C32 25.4679 24.8366 32.6313 16 32.6313C7.16344 32.6313 0 25.4679 0 16.6313Z" fill="#68D4F8"/>
<path d="M14.6271 15.1315C15.1054 14.8553 15.8808 14.8553 16.3592 15.1315L24.6275 19.9048C25.1058 20.1809 25.1058 20.6286 24.6275 20.9047L16.3592 25.678C15.8808 25.9541 15.1054 25.9541 14.6271 25.678L6.35873 20.9047C5.88043 20.6286 5.88043 20.1809 6.35873 19.9048L14.6271 15.1315Z" fill="white"/>
<path fill-rule="evenodd" clip-rule="evenodd" d="M15.4931 16.6314L8.95685 20.4047L15.4931 24.1781L22.0293 20.4047L15.4931 16.6314ZM16.3592 15.1315C15.8808 14.8553 15.1054 14.8553 14.6271 15.1315L6.35873 19.9048C5.88043 20.1809 5.88043 20.6286 6.35873 20.9047L14.6271 25.678C15.1054 25.9541 15.8808 25.9541 16.3592 25.678L24.6275 20.9047C25.1058 20.6286 25.1058 20.1809 24.6275 19.9048L16.3592 15.1315Z" fill="white"/>
<path d="M15.1163 7.8385C15.5946 7.5623 16.37 7.5623 16.8484 7.8385L25.1167 12.6118C25.595 12.8879 25.595 13.3356 25.1167 13.6117L16.8484 18.385C16.37 18.6611 15.5946 18.6611 15.1163 18.385L6.84792 13.6117C6.36962 13.3356 6.36962 12.8879 6.84792 12.6118L15.1163 7.8385Z" fill="#217AB7"/>
</svg>
