<svg width="32" height="33" viewBox="0 0 32 33" fill="none" xmlns="http://www.w3.org/2000/svg">
<g clip-path="url(#clip0)">
<path d="M16 32.241C24.8366 32.241 32 25.2523 32 16.6312C32 8.01021 24.8366 1.02148 16 1.02148C7.16344 1.02148 0 8.01021 0 16.6312C0 25.2523 7.16344 32.241 16 32.241Z" fill="#BEB0F4"/>
<mask id="mask0" mask-type="alpha" maskUnits="userSpaceOnUse" x="0" y="1" width="32" height="32">
<path d="M16 32.241C24.8366 32.241 32 25.2523 32 16.6312C32 8.01021 24.8366 1.02148 16 1.02148C7.16344 1.02148 0 8.01021 0 16.6312C0 25.2523 7.16344 32.241 16 32.241Z" fill="#92BBF7"/>
</mask>
<g mask="url(#mask0)">
</g>
<path d="M6.7341 19.393C9.7266 19.393 13.095 17.3189 16 15.3239C19.08 13.198 22.4666 10.3889 25.2666 10.3889C28.1275 10.3889 30 13.0055 30 15.3239V15.5255C30 23.257 23.7322 29.5255 16 29.5255C8.2678 29.5255 2 23.257 2 15.5255C2.0938 17.4015 3.4217 19.393 6.7341 19.393Z" fill="white"/>
<path d="M6.7341 10.398C9.5341 10.398 12.92 13.198 16 15.3239C18.905 17.3189 22.2741 19.393 25.2666 19.393C28.5776 19.393 29.9062 17.4022 30 15.5255C30 23.257 23.7322 29.5255 16 29.5255C8.2678 29.5255 2 23.257 2 15.5255V15.3239C2 13.0055 3.8725 10.3889 6.7341 10.398Z" fill="#740DF7"/>
</g>
<defs>
<clipPath id="clip0">
<rect width="32" height="32" fill="white" transform="translate(0 0.631348)"/>
</clipPath>
</defs>
</svg>
