<svg width="32" height="33" viewBox="0 0 32 33" fill="none" xmlns="http://www.w3.org/2000/svg">
<g clip-path="url(#clip0)">
<path d="M16 32.241C24.8366 32.241 32 25.2523 32 16.6312C32 8.01021 24.8366 1.02148 16 1.02148C7.16344 1.02148 0 8.01021 0 16.6312C0 25.2523 7.16344 32.241 16 32.241Z" fill="#FCD669"/>
<mask id="mask0" mask-type="alpha" maskUnits="userSpaceOnUse" x="0" y="0" width="32" height="32">
<path d="M16 31.8509C24.8366 31.8509 32 24.8621 32 16.2411C32 7.62007 24.8366 0.631348 16 0.631348C7.16344 0.631348 0 7.62007 0 16.2411C0 24.8621 7.16344 31.8509 16 31.8509Z" fill="#92BBF7"/>
</mask>
<g mask="url(#mask0)">
</g>
<g clip-path="url(#clip1)">
<path d="M16.1432 14.8766C16.9815 14.8766 17.6611 15.5562 17.6611 16.3945C17.6611 17.2328 16.9815 17.9124 16.1432 17.9124C15.3049 17.9124 14.6253 17.2328 14.6253 16.3945C14.6253 15.5562 15.3049 14.8766 16.1432 14.8766Z" fill="#CE7C3A"/>
<path d="M24.7349 17.1643L22.2154 22.2639V25.8813C22.2154 26.2839 22.0554 26.6699 21.7708 26.9546C21.4861 27.2393 21.1001 27.3992 20.6975 27.3992H11.5903C11.1877 27.3992 10.8017 27.2393 10.517 26.9546C10.2323 26.6699 10.0724 26.2839 10.0724 25.8813V22.2639L7.55285 17.1643C7.42896 16.9149 7.37633 16.6361 7.40076 16.3587C7.42519 16.0813 7.52573 15.816 7.69131 15.5921L14.6999 6.07148C14.7473 6.00711 14.8138 5.95935 14.8899 5.935C14.9661 5.91066 15.0479 5.91098 15.1239 5.93592C15.1998 5.96086 15.266 6.00914 15.3128 6.07388C15.3597 6.13862 15.385 6.21651 15.385 6.29644V13.455C14.6695 13.6397 14.0461 14.079 13.6314 14.6905C13.2167 15.3021 13.0393 16.0438 13.1324 16.7768C13.2255 17.5098 13.5827 18.1837 14.1371 18.6721C14.6915 19.1606 15.405 19.43 16.1439 19.43C16.8828 19.43 17.5963 19.1606 18.1507 18.6721C18.7051 18.1837 19.0623 17.5098 19.1554 16.7768C19.2485 16.0438 19.0711 15.3021 18.6564 14.6905C18.2417 14.079 17.6182 13.6397 16.9028 13.455V6.29646C16.9028 6.21652 16.9281 6.13863 16.975 6.07389C17.0218 6.00915 17.088 5.96087 17.1639 5.93593C17.2399 5.91099 17.3217 5.91067 17.3979 5.93502C17.474 5.95936 17.5405 6.00713 17.5879 6.0715L24.5964 15.5922C24.762 15.8161 24.8626 16.0813 24.887 16.3587C24.9114 16.6361 24.8588 16.9149 24.7349 17.1643ZM20.6975 22.8456H11.5903V25.8813H20.6975V22.8456Z" fill="white"/>
<path d="M16.1432 14.8766C16.9815 14.8766 17.6611 15.5562 17.6611 16.3945C17.6611 17.2328 16.9815 17.9124 16.1432 17.9124C15.3049 17.9124 14.6253 17.2328 14.6253 16.3945C14.6253 15.5562 15.3049 14.8766 16.1432 14.8766Z" fill="#CE7C3A"/>
<path fill-rule="evenodd" clip-rule="evenodd" d="M16 27.3992H20.6976C21.1002 27.3992 21.4862 27.2393 21.7709 26.9546C22.0555 26.6699 22.2155 26.2839 22.2155 25.8813V22.2639L24.735 17.1643C24.8589 16.9149 24.9115 16.6361 24.8871 16.3587C24.8626 16.0813 24.7621 15.8161 24.5965 15.5922L17.588 6.0715C17.5406 6.00713 17.4741 5.95936 17.398 5.93502C17.3218 5.91067 17.2399 5.911 17.164 5.93593C17.0881 5.96087 17.0219 6.00915 16.975 6.07389C16.9282 6.13863 16.9029 6.21653 16.9029 6.29646V13.455C17.6183 13.6397 18.2418 14.079 18.6565 14.6905C19.0712 15.3021 19.2486 16.0438 19.1555 16.7768C19.0624 17.5098 18.7052 18.1837 18.1508 18.6721C17.5964 19.1606 16.8829 19.43 16.144 19.43C16.0959 19.43 16.0479 19.4289 16 19.4266V22.8456H20.6976V25.8813H16V27.3992Z" fill="#CE7C3A"/>
</g>
</g>
<defs>
<clipPath id="clip0">
<rect width="32" height="32" fill="white" transform="translate(0 0.631348)"/>
</clipPath>
<clipPath id="clip1">
<rect width="24.2859" height="24.2859" fill="white" transform="matrix(1 0 0 -1 4 28.9172)"/>
</clipPath>
</defs>
</svg>
