<svg width="32" height="33" viewBox="0 0 32 33" fill="none" xmlns="http://www.w3.org/2000/svg">
<g clip-path="url(#clip0)">
<path d="M16 32.241C24.8366 32.241 32 25.2523 32 16.6312C32 8.01021 24.8366 1.02148 16 1.02148C7.16344 1.02148 0 8.01021 0 16.6312C0 25.2523 7.16344 32.241 16 32.241Z" fill="#FCD669"/>
<mask id="mask0" mask-type="alpha" maskUnits="userSpaceOnUse" x="0" y="1" width="32" height="32">
<path d="M16 32.241C24.8366 32.241 32 25.2523 32 16.6312C32 8.01021 24.8366 1.02148 16 1.02148C7.16344 1.02148 0 8.01021 0 16.6312C0 25.2523 7.16344 32.241 16 32.241Z" fill="#92BBF7"/>
</mask>
<g mask="url(#mask0)">
</g>
<g clip-path="url(#clip1)">
<path d="M26.585 15.6183L16.9821 5.68552C16.7163 5.41087 16.3559 5.25659 15.9801 5.25659C15.6043 5.25659 15.2439 5.41087 14.9781 5.68552L12.9814 7.74877L15.5114 10.365C16.8402 9.90088 18.0983 11.2166 17.6421 12.5831L20.0808 15.1049C21.7617 14.5057 23.0852 16.6792 21.8226 17.9837C20.5218 19.3289 18.3748 17.838 19.0726 16.0876L16.7965 13.7369V19.9246C18.0389 20.5614 17.8896 22.0498 17.2424 22.7176C16.9262 23.0444 16.4974 23.228 16.0503 23.228C15.6032 23.228 15.1745 23.0444 14.8582 22.7176C13.9954 21.8238 14.3146 20.3354 15.4107 19.8738V13.6277C14.3893 13.1956 14.2027 12.0667 14.4953 11.3426L12.0012 8.76033L5.41493 15.5721C5.14921 15.847 4.99994 16.2197 4.99994 16.6083C4.99994 16.997 5.14921 17.3697 5.41493 17.6445L15.0208 27.5773C15.2865 27.8519 15.6469 28.0062 16.0226 28.0062C16.3983 28.0062 16.7586 27.8519 17.0244 27.5773L26.585 17.6907C26.8507 17.4159 27 17.0432 27 16.6545C27 16.2659 26.8507 15.8932 26.585 15.6183Z" fill="#CE7C3A"/>
</g>
</g>
<defs>
<clipPath id="clip0">
<rect width="32" height="32" fill="white" transform="translate(0 0.631348)"/>
</clipPath>
<clipPath id="clip1">
<rect width="22" height="26" fill="white" transform="translate(5 3.63135)"/>
</clipPath>
</defs>
</svg>
