<svg width="32" height="33" viewBox="0 0 32 33" fill="none" xmlns="http://www.w3.org/2000/svg">
<g clip-path="url(#clip0)">
<path d="M16 32.6313C24.8366 32.6313 32 25.4679 32 16.6313C32 7.79479 24.8366 0.631348 16 0.631348C7.16344 0.631348 0 7.79479 0 16.6313C0 25.4679 7.16344 32.6313 16 32.6313Z" fill="#85D996"/>
<path d="M18.9067 0.897949L11.0667 8.48462C10.8155 8.73079 10.6717 9.06626 10.6667 9.41795V11.2979L20 11.6885C20.3536 11.6885 20.4166 11.7146 20.6667 11.9646C20.9167 12.2147 20.9428 12.2777 20.9428 12.6313L21.3333 21.9646H23.2C23.3764 21.9639 23.5509 21.9282 23.7134 21.8595C23.8759 21.7908 24.0232 21.6906 24.1467 21.5646L31.76 13.8313C31.1894 10.6232 29.6529 7.66572 27.356 5.35449C25.059 3.04326 22.1112 1.48844 18.9067 0.897949Z" fill="#109B67"/>
<path d="M21.3333 23.8314V21.9648L21.3333 15.9648C21.3333 16.2394 21.3333 13.2981 20.92 11.6981C17.3333 11.2981 13.3333 11.2981 13.3333 11.2981H10.6667H8.79999C8.62358 11.2988 8.44907 11.3346 8.28657 11.4032C8.12407 11.4719 7.97681 11.5721 7.85332 11.6981L1.85332 17.6981C1.7112 17.8421 1.60372 18.0166 1.53904 18.2084C1.47436 18.4001 1.45416 18.6041 1.47999 18.8048C1.93857 21.9027 3.37675 24.7726 5.58401 26.9943C7.79128 29.2159 10.6517 30.6727 13.7467 31.1514C13.9474 31.1773 14.1513 31.1571 14.343 31.0924C14.5348 31.0277 14.7093 30.9202 14.8533 30.7781L20.92 24.7781C21.0468 24.6573 21.1486 24.5127 21.2195 24.3525C21.2904 24.1924 21.3291 24.0199 21.3333 23.8448V23.8314Z" fill="white"/>
</g>
<defs>
<clipPath id="clip0">
<rect width="32" height="32" fill="white" transform="translate(0 0.631348)"/>
</clipPath>
</defs>
</svg>
