<svg width="32" height="33" viewBox="0 0 32 33" fill="none" xmlns="http://www.w3.org/2000/svg">
<g clip-path="url(#clip0)">
<path d="M16 32.241C24.8366 32.241 32 25.2523 32 16.6312C32 8.01021 24.8366 1.02148 16 1.02148C7.16344 1.02148 0 8.01021 0 16.6312C0 25.2523 7.16344 32.241 16 32.241Z" fill="#87BBFD"/>
<g clip-path="url(#clip1)">
<path d="M23.5 13.1313H20.125V10.5063C20.125 9.41233 19.6904 8.36312 18.9168 7.58953C18.1432 6.81594 17.094 6.38135 16 6.38135C14.906 6.38135 13.8568 6.81594 13.0832 7.58953C12.3096 8.36312 11.875 9.41233 11.875 10.5063V13.1313H8.5C8.10231 13.1318 7.72105 13.29 7.43984 13.5712C7.15864 13.8524 7.00045 14.2337 7 14.6313V25.1313C7.00045 25.529 7.15864 25.9103 7.43984 26.1915C7.72105 26.4727 8.10231 26.6309 8.5 26.6313H23.5C23.8977 26.6309 24.279 26.4727 24.5602 26.1915C24.8414 25.9103 24.9995 25.529 25 25.1313V14.6313C24.9995 14.2337 24.8414 13.8524 24.5602 13.5712C24.279 13.29 23.8977 13.1318 23.5 13.1313ZM15.9995 21.0063C15.7769 21.0063 15.5594 20.9404 15.3744 20.8168C15.1894 20.6931 15.0452 20.5174 14.9601 20.3119C14.8749 20.1063 14.8527 19.8801 14.8961 19.6619C14.9395 19.4436 15.0466 19.2432 15.204 19.0859C15.3613 18.9285 15.5617 18.8214 15.78 18.778C15.9982 18.7346 16.2244 18.7568 16.43 18.842C16.6355 18.9271 16.8112 19.0713 16.9349 19.2563C17.0585 19.4413 17.1245 19.6588 17.1245 19.8813C17.1245 20.0291 17.0954 20.1754 17.0388 20.3119C16.9823 20.4484 16.8994 20.5724 16.7949 20.6768C16.6905 20.7813 16.5665 20.8642 16.43 20.9207C16.2935 20.9772 16.1472 21.0063 15.9995 21.0063ZM18.625 13.1313H13.375V10.5063C13.375 9.81015 13.6516 9.14248 14.1438 8.65019C14.6361 8.15791 15.3038 7.88135 16 7.88135C16.6962 7.88135 17.3639 8.15791 17.8562 8.65019C18.3484 9.14248 18.625 9.81015 18.625 10.5063V13.1313Z" fill="#555ABF"/>
<circle cx="16" cy="19.6313" r="2" fill="white"/>
</g>
<mask id="mask0" mask-type="alpha" maskUnits="userSpaceOnUse" x="0" y="1" width="32" height="32">
<path d="M16 32.241C24.8366 32.241 32 25.2523 32 16.6312C32 8.01021 24.8366 1.02148 16 1.02148C7.16344 1.02148 0 8.01021 0 16.6312C0 25.2523 7.16344 32.241 16 32.241Z" fill="#FF7600"/>
</mask>
<g mask="url(#mask0)">
</g>
</g>
<defs>
<clipPath id="clip0">
<rect width="32" height="32" fill="white" transform="translate(0 0.631348)"/>
</clipPath>
<clipPath id="clip1">
<rect width="22" height="22" fill="white" transform="translate(5 5.63135)"/>
</clipPath>
</defs>
</svg>
