<svg width="32" height="33" viewBox="0 0 32 33" fill="none" xmlns="http://www.w3.org/2000/svg">
<g clip-path="url(#clip0)">
<path d="M16 32.241C24.8366 32.241 32 25.2523 32 16.6312C32 8.01021 24.8366 1.02148 16 1.02148C7.16344 1.02148 0 8.01021 0 16.6312C0 25.2523 7.16344 32.241 16 32.241Z" fill="#87BBFD"/>
<mask id="mask0" mask-type="alpha" maskUnits="userSpaceOnUse" x="0" y="1" width="32" height="32">
<path d="M16 32.241C24.8366 32.241 32 25.2523 32 16.6312C32 8.01021 24.8366 1.02148 16 1.02148C7.16344 1.02148 0 8.01021 0 16.6312C0 25.2523 7.16344 32.241 16 32.241Z" fill="#92BBF7"/>
</mask>
<g mask="url(#mask0)">
</g>
<path d="M29.9817 16.2515C29.9405 16.1589 28.9482 13.9574 26.7411 11.7502C23.8015 8.81034 20.0872 7.25635 16 7.25635C11.9127 7.25635 8.19842 8.81034 5.25889 11.7502C3.05178 13.9574 2.05947 16.1589 2.01827 16.2515C1.96501 16.3714 1.9375 16.5011 1.9375 16.6323C1.9375 16.7634 1.96501 16.8931 2.01827 17.013C2.05947 17.1057 3.0519 19.3066 5.259 21.5135C8.19853 24.4527 11.9127 26.0063 16 26.0063C20.0872 26.0063 23.8014 24.4527 26.7409 21.5135C28.948 19.3066 29.9405 17.1057 29.9817 17.013C30.0349 16.8931 30.0624 16.7634 30.0624 16.6323C30.0624 16.5011 30.0349 16.3714 29.9817 16.2515ZM16 12.4136C16.8344 12.4136 17.65 12.6611 18.3438 13.1246C19.0376 13.5882 19.5783 14.2471 19.8976 15.0179C20.2169 15.7888 20.3004 16.6371 20.1377 17.4554C19.9749 18.2738 19.5731 19.0255 18.9831 19.6155C18.3931 20.2055 17.6414 20.6073 16.823 20.7701C16.0047 20.9328 15.1564 20.8493 14.3855 20.53C13.6146 20.2107 12.9558 19.67 12.4922 18.9762C12.0286 18.2824 11.7812 17.4668 11.7812 16.6324C11.7825 15.5139 12.2274 14.4416 13.0183 13.6507C13.8092 12.8598 14.8815 12.4149 16 12.4136Z" fill="white"/>
<circle cx="16" cy="16.6313" r="5" fill="#555ABF"/>
</g>
<defs>
<clipPath id="clip0">
<rect width="32" height="32" fill="white" transform="translate(0 0.631348)"/>
</clipPath>
</defs>
</svg>
